<svg xmlns="http://www.w3.org/2000/svg" viewBox="0 0 8 8" shape-rendering="optimizeSpeed" width="64" height="64"><path fill="hsl(320 40% 39%)" d="M0,0H8V8H0z"/><path fill="hsl(56 40% 53%)" d="M0,0h1v1h-1zM7,0h1v1h-1zM2,0h1v1h-1zM5,0h1v1h-1zM0,1h1v1h-1zM7,1h1v1h-1zM1,1h1v1h-1zM6,1h1v1h-1zM3,1h1v1h-1zM4,1h1v1h-1zM2,2h1v1h-1zM5,2h1v1h-1zM3,2h1v1h-1zM4,2h1v1h-1zM1,3h1v1h-1zM6,3h1v1h-1zM3,3h1v1h-1zM4,3h1v1h-1zM1,4h1v1h-1zM6,4h1v1h-1zM3,4h1v1h-1zM4,4h1v1h-1zM0,5h1v1h-1zM7,5h1v1h-1zM2,5h1v1h-1zM5,5h1v1h-1zM0,6h1v1h-1zM7,6h1v1h-1zM1,6h1v1h-1zM6,6h1v1h-1zM2,6h1v1h-1zM5,6h1v1h-1zM0,7h1v1h-1zM7,7h1v1h-1z"/><path fill="hsl(140 47% 36%)" d="M0,3h1v1h-1zM7,3h1v1h-1zM3,6h1v1h-1zM4,6h1v1h-1z"/></svg>