<svg xmlns="http://www.w3.org/2000/svg" viewBox="0 0 8 8" shape-rendering="optimizeSpeed" width="64" height="64"><path fill="hsl(296 78% 64%)" d="M0,0H8V8H0z"/><path fill="hsl(345 99% 55%)" d="M1,0h1v1h-1zM6,0h1v1h-1zM3,0h1v1h-1zM4,0h1v1h-1zM0,1h1v1h-1zM7,1h1v1h-1zM0,2h1v1h-1zM7,2h1v1h-1zM1,2h1v1h-1zM6,2h1v1h-1zM3,2h1v1h-1zM4,2h1v1h-1zM0,3h1v1h-1zM7,3h1v1h-1zM2,3h1v1h-1zM5,3h1v1h-1zM0,4h1v1h-1zM7,4h1v1h-1zM0,5h1v1h-1zM7,5h1v1h-1zM1,5h1v1h-1zM6,5h1v1h-1zM2,5h1v1h-1zM5,5h1v1h-1zM3,5h1v1h-1zM4,5h1v1h-1zM1,6h1v1h-1zM6,6h1v1h-1zM2,6h1v1h-1zM5,6h1v1h-1zM1,7h1v1h-1zM6,7h1v1h-1zM2,7h1v1h-1zM5,7h1v1h-1zM3,7h1v1h-1zM4,7h1v1h-1z"/><path fill="hsl(295 98% 53%)" d=""/></svg>