<svg xmlns="http://www.w3.org/2000/svg" viewBox="0 0 8 8" shape-rendering="optimizeSpeed" width="64" height="64"><path fill="hsl(287 41% 42%)" d="M0,0H8V8H0z"/><path fill="hsl(300 41% 70%)" d="M1,0h1v1h-1zM6,0h1v1h-1zM3,1h1v1h-1zM4,1h1v1h-1zM2,2h1v1h-1zM5,2h1v1h-1zM0,3h1v1h-1zM7,3h1v1h-1zM1,3h1v1h-1zM6,3h1v1h-1zM2,3h1v1h-1zM5,3h1v1h-1zM2,4h1v1h-1zM5,4h1v1h-1zM0,5h1v1h-1zM7,5h1v1h-1zM0,6h1v1h-1zM7,6h1v1h-1zM1,6h1v1h-1zM6,6h1v1h-1zM0,7h1v1h-1zM7,7h1v1h-1zM1,7h1v1h-1zM6,7h1v1h-1zM2,7h1v1h-1zM5,7h1v1h-1zM3,7h1v1h-1zM4,7h1v1h-1z"/><path fill="hsl(20 55% 37%)" d=""/></svg>