<svg xmlns="http://www.w3.org/2000/svg" viewBox="0 0 8 8" shape-rendering="optimizeSpeed" width="64" height="64"><path fill="hsl(291 56% 42%)" d="M0,0H8V8H0z"/><path fill="hsl(66 67% 36%)" d="M1,0h1v1h-1zM6,0h1v1h-1zM3,0h1v1h-1zM4,0h1v1h-1zM0,1h1v1h-1zM7,1h1v1h-1zM1,1h1v1h-1zM6,1h1v1h-1zM2,1h1v1h-1zM5,1h1v1h-1zM1,2h1v1h-1zM6,2h1v1h-1zM1,3h1v1h-1zM6,3h1v1h-1zM3,3h1v1h-1zM4,3h1v1h-1zM1,4h1v1h-1zM6,4h1v1h-1zM3,4h1v1h-1zM4,4h1v1h-1zM0,5h1v1h-1zM7,5h1v1h-1zM1,5h1v1h-1zM6,5h1v1h-1zM0,6h1v1h-1zM7,6h1v1h-1zM2,7h1v1h-1zM5,7h1v1h-1z"/><path fill="hsl(184 48% 50%)" d="M0,2h1v1h-1zM7,2h1v1h-1z"/></svg>